<svg width="32" height="32" viewBox="0 0 32 32" fill="none" xmlns="http://www.w3.org/2000/svg">
  <!-- Background circle with gradient -->
  <defs>
    <linearGradient id="faviconGradient" x1="0%" y1="0%" x2="100%" y2="100%">
      <stop offset="0%" stopColor="#627eea" />
      <stop offset="100%" stopColor="#8b5cf6" />
    </linearGradient>
  </defs>
  
  <!-- Background circle -->
  <circle cx="16" cy="16" r="15" fill="url(#faviconGradient)" />
  
  <!-- Academic cap (graduation hat) -->
  <g fill="white">
    <!-- Cap base -->
    <ellipse cx="16" cy="13.5" rx="8" ry="2.5" />
    
    <!-- Cap top -->
    <path d="M8 13.5 L16 8 L24 13.5 L16 16 Z" />
    
    <!-- Tassel -->
    <circle cx="21" cy="11" r="0.6" />
    <line x1="21" y1="11.6" x2="22.5" y2="14" stroke="white" strokeWidth="0.5" />
    <circle cx="22.5" cy="14" r="0.5" />
    
    <!-- Academic scroll/diploma -->
    <rect x="13" y="19" width="6" height="1" rx="0.5" />
    <rect x="13.5" y="21" width="5" height="0.6" rx="0.3" />
    <rect x="14" y="22.5" width="4" height="0.6" rx="0.3" />
    
    <!-- Crypto/blockchain elements - small cubes -->
    <rect x="9.5" y="17.5" width="1.5" height="1.5" rx="0.3" opacity="0.8" />
    <rect x="21" y="18.5" width="1.5" height="1.5" rx="0.3" opacity="0.8" />
    <rect x="11" y="23" width="1" height="1" rx="0.2" opacity="0.6" />
    <rect x="20" y="22" width="1" height="1" rx="0.2" opacity="0.6" />
  </g>
</svg> 